<mxfile host="app.diagrams.net" modified="2022-10-09T14:46:51.137Z" agent="5.0 (X11)" etag="q4xDi-KUlQDsHR8MSUr-" version="20.4.0" type="github">
  <diagram id="rVzSDo7fEXrxxZmn6LZQ" name="Page-1">
    <mxGraphModel dx="1422" dy="744" grid="1" gridSize="10" guides="1" tooltips="1" connect="1" arrows="1" fold="1" page="1" pageScale="1" pageWidth="850" pageHeight="1100" math="0" shadow="0">
      <root>
        <mxCell id="0" />
        <mxCell id="1" parent="0" />
        <mxCell id="3L-gXThl8AOzqYtp8lAw-22" style="edgeStyle=orthogonalEdgeStyle;rounded=0;orthogonalLoop=1;jettySize=auto;html=1;startArrow=classic;startFill=1;" edge="1" parent="1" source="3L-gXThl8AOzqYtp8lAw-40" target="3L-gXThl8AOzqYtp8lAw-18">
          <mxGeometry relative="1" as="geometry">
            <mxPoint x="539" y="358" as="sourcePoint" />
          </mxGeometry>
        </mxCell>
        <mxCell id="3L-gXThl8AOzqYtp8lAw-32" style="edgeStyle=orthogonalEdgeStyle;rounded=0;orthogonalLoop=1;jettySize=auto;html=1;startArrow=none;startFill=0;endArrow=classic;endFill=1;" edge="1" parent="1" target="3L-gXThl8AOzqYtp8lAw-27">
          <mxGeometry relative="1" as="geometry">
            <mxPoint x="578" y="319" as="sourcePoint" />
            <Array as="points">
              <mxPoint x="610" y="319" />
              <mxPoint x="610" y="406" />
            </Array>
          </mxGeometry>
        </mxCell>
        <mxCell id="3L-gXThl8AOzqYtp8lAw-33" style="edgeStyle=orthogonalEdgeStyle;rounded=0;orthogonalLoop=1;jettySize=auto;html=1;startArrow=none;startFill=0;endArrow=classic;endFill=1;" edge="1" parent="1" target="3L-gXThl8AOzqYtp8lAw-25">
          <mxGeometry relative="1" as="geometry">
            <mxPoint x="578" y="319" as="sourcePoint" />
            <Array as="points">
              <mxPoint x="610" y="319" />
              <mxPoint x="610" y="230" />
            </Array>
          </mxGeometry>
        </mxCell>
        <mxCell id="3L-gXThl8AOzqYtp8lAw-34" style="edgeStyle=orthogonalEdgeStyle;rounded=0;orthogonalLoop=1;jettySize=auto;html=1;startArrow=none;startFill=0;endArrow=classic;endFill=1;exitX=1;exitY=0.5;exitDx=0;exitDy=0;exitPerimeter=0;" edge="1" parent="1" source="3L-gXThl8AOzqYtp8lAw-40" target="3L-gXThl8AOzqYtp8lAw-26">
          <mxGeometry relative="1" as="geometry">
            <mxPoint x="578" y="319" as="sourcePoint" />
          </mxGeometry>
        </mxCell>
        <mxCell id="3L-gXThl8AOzqYtp8lAw-10" style="edgeStyle=orthogonalEdgeStyle;rounded=0;orthogonalLoop=1;jettySize=auto;html=1;startArrow=classic;startFill=1;entryX=0;entryY=0.5;entryDx=0;entryDy=0;entryPerimeter=0;" edge="1" parent="1" source="3L-gXThl8AOzqYtp8lAw-6" target="3L-gXThl8AOzqYtp8lAw-40">
          <mxGeometry relative="1" as="geometry">
            <mxPoint x="500" y="319" as="targetPoint" />
          </mxGeometry>
        </mxCell>
        <mxCell id="3L-gXThl8AOzqYtp8lAw-12" style="edgeStyle=orthogonalEdgeStyle;rounded=0;orthogonalLoop=1;jettySize=auto;html=1;startArrow=classic;startFill=1;" edge="1" parent="1" source="3L-gXThl8AOzqYtp8lAw-6" target="3L-gXThl8AOzqYtp8lAw-11">
          <mxGeometry relative="1" as="geometry" />
        </mxCell>
        <mxCell id="3L-gXThl8AOzqYtp8lAw-48" style="edgeStyle=orthogonalEdgeStyle;rounded=0;orthogonalLoop=1;jettySize=auto;html=1;entryX=1;entryY=0.5;entryDx=0;entryDy=0;entryPerimeter=0;startArrow=classic;startFill=1;endArrow=classic;endFill=1;" edge="1" parent="1" source="3L-gXThl8AOzqYtp8lAw-6" target="3L-gXThl8AOzqYtp8lAw-15">
          <mxGeometry relative="1" as="geometry" />
        </mxCell>
        <mxCell id="3L-gXThl8AOzqYtp8lAw-6" value="APC.Ingestion" style="sketch=0;points=[[0,0,0],[0.25,0,0],[0.5,0,0],[0.75,0,0],[1,0,0],[0,1,0],[0.25,1,0],[0.5,1,0],[0.75,1,0],[1,1,0],[0,0.25,0],[0,0.5,0],[0,0.75,0],[1,0.25,0],[1,0.5,0],[1,0.75,0]];outlineConnect=0;fontColor=#232F3E;gradientColor=#945DF2;gradientDirection=north;fillColor=#5A30B5;strokeColor=#ffffff;dashed=0;verticalLabelPosition=top;verticalAlign=bottom;align=center;html=1;fontSize=12;fontStyle=0;aspect=fixed;shape=mxgraph.aws4.resourceIcon;resIcon=mxgraph.aws4.glue;labelPosition=center;" vertex="1" parent="1">
          <mxGeometry x="367" y="289" width="60" height="60" as="geometry" />
        </mxCell>
        <mxCell id="3L-gXThl8AOzqYtp8lAw-11" value="Redis Cache" style="sketch=0;points=[[0,0,0],[0.25,0,0],[0.5,0,0],[0.75,0,0],[1,0,0],[0,1,0],[0.25,1,0],[0.5,1,0],[0.75,1,0],[1,1,0],[0,0.25,0],[0,0.5,0],[0,0.75,0],[1,0.25,0],[1,0.5,0],[1,0.75,0]];outlineConnect=0;fontColor=#232F3E;gradientColor=#4D72F3;gradientDirection=north;fillColor=#3334B9;strokeColor=#ffffff;dashed=0;verticalLabelPosition=bottom;verticalAlign=top;align=center;html=1;fontSize=12;fontStyle=0;aspect=fixed;shape=mxgraph.aws4.resourceIcon;resIcon=mxgraph.aws4.elasticache;" vertex="1" parent="1">
          <mxGeometry x="372" y="390" width="50" height="50" as="geometry" />
        </mxCell>
        <mxCell id="3L-gXThl8AOzqYtp8lAw-15" value="Artifact Database" style="sketch=0;points=[[0,0,0],[0.25,0,0],[0.5,0,0],[0.75,0,0],[1,0,0],[0,1,0],[0.25,1,0],[0.5,1,0],[0.75,1,0],[1,1,0],[0,0.25,0],[0,0.5,0],[0,0.75,0],[1,0.25,0],[1,0.5,0],[1,0.75,0]];outlineConnect=0;fontColor=#232F3E;gradientColor=#4D72F3;gradientDirection=north;fillColor=#3334B9;strokeColor=#ffffff;dashed=0;verticalLabelPosition=bottom;verticalAlign=top;align=center;html=1;fontSize=12;fontStyle=0;aspect=fixed;shape=mxgraph.aws4.resourceIcon;resIcon=mxgraph.aws4.database;" vertex="1" parent="1">
          <mxGeometry x="190" y="440" width="78" height="78" as="geometry" />
        </mxCell>
        <mxCell id="3L-gXThl8AOzqYtp8lAw-18" value="Artifact Processor Module (APM)" style="sketch=0;points=[[0,0,0],[0.25,0,0],[0.5,0,0],[0.75,0,0],[1,0,0],[0,1,0],[0.25,1,0],[0.5,1,0],[0.75,1,0],[1,1,0],[0,0.25,0],[0,0.5,0],[0,0.75,0],[1,0.25,0],[1,0.5,0],[1,0.75,0]];outlineConnect=0;fontColor=#232F3E;gradientColor=#F78E04;gradientDirection=north;fillColor=#D05C17;strokeColor=#ffffff;dashed=0;verticalLabelPosition=bottom;verticalAlign=top;align=center;html=1;fontSize=12;fontStyle=0;aspect=fixed;shape=mxgraph.aws4.resourceIcon;resIcon=mxgraph.aws4.compute;" vertex="1" parent="1">
          <mxGeometry x="520" y="426" width="38" height="38" as="geometry" />
        </mxCell>
        <mxCell id="3L-gXThl8AOzqYtp8lAw-20" value="Raw Disk" style="sketch=0;points=[[0,0,0],[0.25,0,0],[0.5,0,0],[0.75,0,0],[1,0,0],[0,1,0],[0.25,1,0],[0.5,1,0],[0.75,1,0],[1,1,0],[0,0.25,0],[0,0.5,0],[0,0.75,0],[1,0.25,0],[1,0.5,0],[1,0.75,0]];outlineConnect=0;fontColor=#232F3E;gradientColor=#60A337;gradientDirection=north;fillColor=#277116;strokeColor=#ffffff;dashed=0;verticalLabelPosition=bottom;verticalAlign=top;align=center;html=1;fontSize=12;fontStyle=0;aspect=fixed;shape=mxgraph.aws4.resourceIcon;resIcon=mxgraph.aws4.storage;" vertex="1" parent="1">
          <mxGeometry x="780" y="231" width="58" height="58" as="geometry" />
        </mxCell>
        <mxCell id="3L-gXThl8AOzqYtp8lAw-21" value="S3" style="sketch=0;points=[[0,0,0],[0.25,0,0],[0.5,0,0],[0.75,0,0],[1,0,0],[0,1,0],[0.25,1,0],[0.5,1,0],[0.75,1,0],[1,1,0],[0,0.25,0],[0,0.5,0],[0,0.75,0],[1,0.25,0],[1,0.5,0],[1,0.75,0]];outlineConnect=0;fontColor=#232F3E;gradientColor=#60A337;gradientDirection=north;fillColor=#277116;strokeColor=#ffffff;dashed=0;verticalLabelPosition=bottom;verticalAlign=top;align=center;html=1;fontSize=12;fontStyle=0;aspect=fixed;shape=mxgraph.aws4.resourceIcon;resIcon=mxgraph.aws4.s3;" vertex="1" parent="1">
          <mxGeometry x="780" y="349" width="58" height="58" as="geometry" />
        </mxCell>
        <mxCell id="3L-gXThl8AOzqYtp8lAw-35" style="edgeStyle=orthogonalEdgeStyle;rounded=0;orthogonalLoop=1;jettySize=auto;html=1;startArrow=none;startFill=0;endArrow=classic;endFill=1;" edge="1" parent="1" source="3L-gXThl8AOzqYtp8lAw-25" target="3L-gXThl8AOzqYtp8lAw-20">
          <mxGeometry relative="1" as="geometry" />
        </mxCell>
        <mxCell id="3L-gXThl8AOzqYtp8lAw-25" value="HTTP Collector" style="sketch=0;points=[[0,0,0],[0.25,0,0],[0.5,0,0],[0.75,0,0],[1,0,0],[0,1,0],[0.25,1,0],[0.5,1,0],[0.75,1,0],[1,1,0],[0,0.25,0],[0,0.5,0],[0,0.75,0],[1,0.25,0],[1,0.5,0],[1,0.75,0]];gradientDirection=north;outlineConnect=0;fontColor=#232F3E;gradientColor=#505863;fillColor=#1E262E;strokeColor=#ffffff;dashed=0;verticalLabelPosition=bottom;verticalAlign=top;align=center;html=1;fontSize=12;fontStyle=0;aspect=fixed;shape=mxgraph.aws4.resourceIcon;resIcon=mxgraph.aws4.general;" vertex="1" parent="1">
          <mxGeometry x="660" y="210" width="40" height="40" as="geometry" />
        </mxCell>
        <mxCell id="3L-gXThl8AOzqYtp8lAw-36" style="edgeStyle=orthogonalEdgeStyle;rounded=0;orthogonalLoop=1;jettySize=auto;html=1;startArrow=none;startFill=0;endArrow=classic;endFill=1;" edge="1" parent="1" source="3L-gXThl8AOzqYtp8lAw-26" target="3L-gXThl8AOzqYtp8lAw-20">
          <mxGeometry relative="1" as="geometry">
            <Array as="points">
              <mxPoint x="740" y="319" />
              <mxPoint x="740" y="260" />
            </Array>
          </mxGeometry>
        </mxCell>
        <mxCell id="3L-gXThl8AOzqYtp8lAw-38" style="edgeStyle=orthogonalEdgeStyle;rounded=0;orthogonalLoop=1;jettySize=auto;html=1;entryX=0;entryY=0.5;entryDx=0;entryDy=0;entryPerimeter=0;startArrow=none;startFill=0;endArrow=classic;endFill=1;" edge="1" parent="1" source="3L-gXThl8AOzqYtp8lAw-26" target="3L-gXThl8AOzqYtp8lAw-21">
          <mxGeometry relative="1" as="geometry" />
        </mxCell>
        <mxCell id="3L-gXThl8AOzqYtp8lAw-26" value="Git Collector" style="sketch=0;points=[[0,0,0],[0.25,0,0],[0.5,0,0],[0.75,0,0],[1,0,0],[0,1,0],[0.25,1,0],[0.5,1,0],[0.75,1,0],[1,1,0],[0,0.25,0],[0,0.5,0],[0,0.75,0],[1,0.25,0],[1,0.5,0],[1,0.75,0]];gradientDirection=north;outlineConnect=0;fontColor=#232F3E;gradientColor=#505863;fillColor=#1E262E;strokeColor=#ffffff;dashed=0;verticalLabelPosition=bottom;verticalAlign=top;align=center;html=1;fontSize=12;fontStyle=0;aspect=fixed;shape=mxgraph.aws4.resourceIcon;resIcon=mxgraph.aws4.general;" vertex="1" parent="1">
          <mxGeometry x="660" y="299" width="40" height="40" as="geometry" />
        </mxCell>
        <mxCell id="3L-gXThl8AOzqYtp8lAw-37" style="edgeStyle=orthogonalEdgeStyle;rounded=0;orthogonalLoop=1;jettySize=auto;html=1;startArrow=none;startFill=0;endArrow=classic;endFill=1;" edge="1" parent="1" source="3L-gXThl8AOzqYtp8lAw-27" target="3L-gXThl8AOzqYtp8lAw-21">
          <mxGeometry relative="1" as="geometry" />
        </mxCell>
        <mxCell id="3L-gXThl8AOzqYtp8lAw-39" style="edgeStyle=orthogonalEdgeStyle;rounded=0;orthogonalLoop=1;jettySize=auto;html=1;entryX=0;entryY=0.5;entryDx=0;entryDy=0;entryPerimeter=0;startArrow=none;startFill=0;endArrow=classic;endFill=1;" edge="1" parent="1" source="3L-gXThl8AOzqYtp8lAw-27" target="3L-gXThl8AOzqYtp8lAw-20">
          <mxGeometry relative="1" as="geometry" />
        </mxCell>
        <mxCell id="3L-gXThl8AOzqYtp8lAw-27" value="Docker Collector" style="sketch=0;points=[[0,0,0],[0.25,0,0],[0.5,0,0],[0.75,0,0],[1,0,0],[0,1,0],[0.25,1,0],[0.5,1,0],[0.75,1,0],[1,1,0],[0,0.25,0],[0,0.5,0],[0,0.75,0],[1,0.25,0],[1,0.5,0],[1,0.75,0]];gradientDirection=north;outlineConnect=0;fontColor=#232F3E;gradientColor=#505863;fillColor=#1E262E;strokeColor=#ffffff;dashed=0;verticalLabelPosition=bottom;verticalAlign=top;align=center;html=1;fontSize=12;fontStyle=0;aspect=fixed;shape=mxgraph.aws4.resourceIcon;resIcon=mxgraph.aws4.general;" vertex="1" parent="1">
          <mxGeometry x="660" y="386" width="40" height="40" as="geometry" />
        </mxCell>
        <mxCell id="3L-gXThl8AOzqYtp8lAw-40" value="" style="sketch=0;points=[[0,0,0],[0.25,0,0],[0.5,0,0],[0.75,0,0],[1,0,0],[0,1,0],[0.25,1,0],[0.5,1,0],[0.75,1,0],[1,1,0],[0,0.25,0],[0,0.5,0],[0,0.75,0],[1,0.25,0],[1,0.5,0],[1,0.75,0]];outlineConnect=0;fontColor=#232F3E;gradientColor=#FF4F8B;gradientDirection=north;fillColor=#BC1356;strokeColor=#ffffff;dashed=0;verticalLabelPosition=bottom;verticalAlign=top;align=center;html=1;fontSize=12;fontStyle=0;aspect=fixed;shape=mxgraph.aws4.resourceIcon;resIcon=mxgraph.aws4.mq;" vertex="1" parent="1">
          <mxGeometry x="500" y="280" width="78" height="78" as="geometry" />
        </mxCell>
        <mxCell id="3L-gXThl8AOzqYtp8lAw-47" style="edgeStyle=orthogonalEdgeStyle;rounded=0;orthogonalLoop=1;jettySize=auto;html=1;startArrow=classic;startFill=1;endArrow=classic;endFill=1;" edge="1" parent="1" source="3L-gXThl8AOzqYtp8lAw-43" target="3L-gXThl8AOzqYtp8lAw-15">
          <mxGeometry relative="1" as="geometry" />
        </mxCell>
        <mxCell id="3L-gXThl8AOzqYtp8lAw-49" style="edgeStyle=orthogonalEdgeStyle;rounded=0;orthogonalLoop=1;jettySize=auto;html=1;entryX=0;entryY=0.25;entryDx=0;entryDy=0;entryPerimeter=0;startArrow=classic;startFill=1;endArrow=classic;endFill=1;" edge="1" parent="1" source="3L-gXThl8AOzqYtp8lAw-43" target="3L-gXThl8AOzqYtp8lAw-6">
          <mxGeometry relative="1" as="geometry" />
        </mxCell>
        <mxCell id="3L-gXThl8AOzqYtp8lAw-43" value="APC.API (REST)" style="sketch=0;points=[[0,0,0],[0.25,0,0],[0.5,0,0],[0.75,0,0],[1,0,0],[0,1,0],[0.25,1,0],[0.5,1,0],[0.75,1,0],[1,1,0],[0,0.25,0],[0,0.5,0],[0,0.75,0],[1,0.25,0],[1,0.5,0],[1,0.75,0]];outlineConnect=0;fontColor=#232F3E;gradientColor=#4D72F3;gradientDirection=north;fillColor=#3334B9;strokeColor=#ffffff;dashed=0;verticalLabelPosition=top;verticalAlign=bottom;align=left;html=1;fontSize=12;fontStyle=0;aspect=fixed;shape=mxgraph.aws4.resourceIcon;resIcon=mxgraph.aws4.command_line_interface;labelPosition=right;" vertex="1" parent="1">
          <mxGeometry x="210" y="285" width="37" height="37" as="geometry" />
        </mxCell>
        <mxCell id="3L-gXThl8AOzqYtp8lAw-51" style="edgeStyle=orthogonalEdgeStyle;rounded=0;orthogonalLoop=1;jettySize=auto;html=1;startArrow=classic;startFill=1;endArrow=classic;endFill=1;" edge="1" parent="1" source="3L-gXThl8AOzqYtp8lAw-50" target="3L-gXThl8AOzqYtp8lAw-43">
          <mxGeometry relative="1" as="geometry" />
        </mxCell>
        <mxCell id="3L-gXThl8AOzqYtp8lAw-50" value="APC.GUI" style="sketch=0;points=[[0,0,0],[0.25,0,0],[0.5,0,0],[0.75,0,0],[1,0,0],[0,1,0],[0.25,1,0],[0.5,1,0],[0.75,1,0],[1,1,0],[0,0.25,0],[0,0.5,0],[0,0.75,0],[1,0.25,0],[1,0.5,0],[1,0.75,0]];points=[[0,0,0],[0.25,0,0],[0.5,0,0],[0.75,0,0],[1,0,0],[0,1,0],[0.25,1,0],[0.5,1,0],[0.75,1,0],[1,1,0],[0,0.25,0],[0,0.5,0],[0,0.75,0],[1,0.25,0],[1,0.5,0],[1,0.75,0]];outlineConnect=0;fontColor=#232F3E;gradientColor=#F34482;gradientDirection=north;fillColor=#BC1356;strokeColor=#ffffff;dashed=0;verticalLabelPosition=top;verticalAlign=bottom;align=center;html=1;fontSize=12;fontStyle=0;aspect=fixed;shape=mxgraph.aws4.resourceIcon;resIcon=mxgraph.aws4.management_console;labelPosition=center;" vertex="1" parent="1">
          <mxGeometry x="204" y="160" width="50" height="50" as="geometry" />
        </mxCell>
        <mxCell id="3L-gXThl8AOzqYtp8lAw-53" style="edgeStyle=orthogonalEdgeStyle;rounded=0;orthogonalLoop=1;jettySize=auto;html=1;entryX=0;entryY=0.5;entryDx=0;entryDy=0;entryPerimeter=0;startArrow=classic;startFill=1;endArrow=classic;endFill=1;" edge="1" parent="1" source="3L-gXThl8AOzqYtp8lAw-52" target="3L-gXThl8AOzqYtp8lAw-43">
          <mxGeometry relative="1" as="geometry" />
        </mxCell>
        <mxCell id="3L-gXThl8AOzqYtp8lAw-52" value="Artifact Notification Module" style="sketch=0;points=[[0,0,0],[0.25,0,0],[0.5,0,0],[0.75,0,0],[1,0,0],[0,1,0],[0.25,1,0],[0.5,1,0],[0.75,1,0],[1,1,0],[0,0.25,0],[0,0.5,0],[0,0.75,0],[1,0.25,0],[1,0.5,0],[1,0.75,0]];outlineConnect=0;fontColor=#232F3E;gradientColor=#4AB29A;gradientDirection=north;fillColor=#116D5B;strokeColor=#ffffff;dashed=0;verticalLabelPosition=top;verticalAlign=bottom;align=center;html=1;fontSize=12;fontStyle=0;aspect=fixed;shape=mxgraph.aws4.resourceIcon;resIcon=mxgraph.aws4.application_discovery_service;labelPosition=center;" vertex="1" parent="1">
          <mxGeometry x="60" y="283" width="41" height="41" as="geometry" />
        </mxCell>
      </root>
    </mxGraphModel>
  </diagram>
</mxfile>
